<svg xmlns="http://www.w3.org/2000/svg" width="24.136" height="24.143" viewBox="0 0 24.136 24.143"><defs><style>.a{fill:#3d3d3d;}</style></defs><path class="a" d="M363.136,41.761a1.617,1.617,0,0,1-.84,1.184,1.989,1.989,0,0,1-.792.189q-9.1.016-18.2.006a1.583,1.583,0,0,1-1.631-1.732c0-1.469-.011-2.938,0-4.407a5.849,5.849,0,0,0-.2-1.557q-1.2-4.625-2.388-9.255a1.655,1.655,0,0,1,.672-2.012,1.979,1.979,0,0,1,.48-.2q8.756-2.451,17.515-4.895a1.554,1.554,0,0,1,2.094,1.273c.383,1.479.766,2.957,1.138,4.439.046.181.117.237.287.226a1.574,1.574,0,0,1,1.542.651,4.4,4.4,0,0,1,.319.73Zm-10.743.575h9.01c.693,0,.971-.294.971-1.022V26.853c0-.741-.277-1.028-.99-1.028H343.412c-.709,0-.981.288-.981,1.035V41.3c0,.759.269,1.039,1,1.039Zm7.851-17.314c-.016-.085-.025-.15-.041-.212q-.556-2.159-1.115-4.317a.776.776,0,0,0-1.071-.643q-8.781,2.452-17.562,4.906a.821.821,0,0,0-.639,1.163q.7,2.721,1.4,5.441c.138.537.279,1.073.419,1.609l.038-.007v-.267q0-2.946,0-5.893a2.465,2.465,0,0,1,.043-.516,1.557,1.557,0,0,1,1.637-1.263h16.893Z" transform="translate(-339 -19)"/><path class="a" d="M363.92,64.123h-3.135c-.4,0-.518-.124-.519-.548q0-1.868,0-3.737c0-.408.122-.538.5-.538q3.135,0,6.27,0c.382,0,.509.136.51.535q0,1.881,0,3.762c0,.386-.132.525-.495.526Q365.487,64.125,363.92,64.123Zm-2.875-.815h5.723V60.118h-5.723Z" transform="translate(-355.681 -50.612)"/><path class="a" d="M362.109,84.412v-.774h17.219v.774Z" transform="translate(-357.128 -69.705)"/><path class="a" d="M379.352,91.119v.766H362.135v-.766Z" transform="translate(-357.148 -75.573)"/><path class="a" d="M379.352,103.452v.766H362.135v-.766Z" transform="translate(-357.148 -85.248)"/><path class="a" d="M379.352,110.989v.766H362.135v-.766Z" transform="translate(-357.148 -91.16)"/><path class="a" d="M379.352,118.526v.766H362.135v-.766Z" transform="translate(-357.148 -97.072)"/><path class="a" d="M407.218,69.46h-9.555v-.779h9.555Z" transform="translate(-385.018 -57.972)"/><path class="a" d="M397.657,62.007v-.775h9.558v.775Z" transform="translate(-385.013 -52.129)"/><path class="a" d="M407.216,76.215v.757h-9.559v-.757Z" transform="translate(-385.013 -63.882)"/></svg>