<svg xmlns="http://www.w3.org/2000/svg" width="124.655" height="34" viewBox="0 0 124.655 34"><defs><style>.a,.e{fill:none;}.a{stroke:#cfcfcf;stroke-linecap:round;stroke-linejoin:round;}.b{fill:#3d3d3d;font-size:20px;font-family:RobotoSlab-Regular, Roboto Slab;}.c{fill:#134704;}.d{stroke:none;}</style></defs><g class="a"><rect class="d" width="124.655" height="34" rx="5"/><rect class="e" x="0.5" y="0.5" width="123.655" height="33" rx="4.5"/></g><text class="b" transform="translate(45 25)"><tspan x="-37.544" y="0">Acessar</tspan></text><path class="c" d="M7.355,20.409.317,13.371a1.083,1.083,0,0,1,0-1.531l1.531-1.531a1.083,1.083,0,0,1,1.531,0l4.741,4.741L18.276,4.894a1.083,1.083,0,0,1,1.531,0l1.531,1.531a1.083,1.083,0,0,1,0,1.531L8.886,20.409A1.083,1.083,0,0,1,7.355,20.409Z" transform="translate(93 4.349)"/></svg>