<svg xmlns="http://www.w3.org/2000/svg" width="28.465" height="28.465" viewBox="0 0 28.465 28.465"><defs><style>.a{fill:#3d3d3d;}</style></defs><path class="a" d="M60.949,44a15.087,15.087,0,0,1,1.581.389,5.891,5.891,0,0,1,3.947,6.216,6.14,6.14,0,1,1-6.844-6.558A1.175,1.175,0,0,0,59.8,44Zm4.333,5.93a4.912,4.912,0,1,0-4.9,4.743A4.835,4.835,0,0,0,65.283,49.93Z" transform="translate(-49.312 -44)"/><path class="a" d="M43,81.273a13.057,13.057,0,0,1,.389-1.383A5.479,5.479,0,0,1,48.5,76.495c2.438-.01,4.877,0,7.315,0a.617.617,0,0,1,.694.493.566.566,0,0,1-.378.643,1.465,1.465,0,0,1-.426.043c-2.361,0-4.723,0-7.085,0a4.271,4.271,0,0,0-4.142,2.8,4.367,4.367,0,0,0-.237,1.3c-.031,1.333-.012,2.667-.012,4,0,.053.01.107.019.2h9.011c.519,0,.8.211.8.589s-.293.592-.805.592c-3.149,0-6.3,0-9.446.005A.773.773,0,0,1,43,86.72Z" transform="translate(-43 -62.262)"/><path class="a" d="M88.556,84.061a3.069,3.069,0,0,1-.2.514c-.293.52-.6,1.031-.916,1.541a1.243,1.243,0,0,1-1.654.519c-.4-.171-.8-.36-1.207-.521a.528.528,0,0,0-.33.031c-.114.041-.2.148-.319.183a.889.889,0,0,0-.673,1,5.717,5.717,0,0,1-.07.774,1.2,1.2,0,0,1-1.227,1.1q-.979.012-1.958,0a1.172,1.172,0,0,1-1.2-.988c-.075-.456-.1-.921-.165-1.379a.486.486,0,0,0-.2-.287c-.186-.129-.415-.2-.592-.339a.508.508,0,0,0-.619-.039c-.348.176-.711.322-1.072.472a1.23,1.23,0,0,1-1.611-.5q-.485-.788-.95-1.586a1.138,1.138,0,0,1,.357-1.6c.338-.244.679-.485,1.03-.71a.376.376,0,0,0,.189-.415,3.234,3.234,0,0,1,0-.692.352.352,0,0,0-.179-.391c-.352-.224-.691-.467-1.03-.71a1.143,1.143,0,0,1-.362-1.618q.459-.786.935-1.562a1.237,1.237,0,0,1,1.633-.506c.4.169.8.356,1.211.512a.548.548,0,0,0,.356-.032c.149-.059.269-.192.42-.237a.718.718,0,0,0,.537-.79,6.675,6.675,0,0,1,.106-1.021A1.161,1.161,0,0,1,80,73.8c.662-.011,1.325-.012,1.986,0a1.187,1.187,0,0,1,1.206,1.084c.044.414.09.829.121,1.244a.355.355,0,0,0,.235.339,4.482,4.482,0,0,1,.67.375.372.372,0,0,0,.419.026c.388-.181.783-.35,1.178-.514a1.235,1.235,0,0,1,1.613.5q.485.788.948,1.587a1.144,1.144,0,0,1-.361,1.6c-.354.254-.721.491-1.069.754a.432.432,0,0,0-.137.289c-.017.24.035.486,0,.72a.431.431,0,0,0,.248.493c.337.212.659.447.984.678A1.233,1.233,0,0,1,88.556,84.061ZM75.621,85.573c.58-.252,1.132-.486,1.678-.731a.776.776,0,0,1,.805.086,13.673,13.673,0,0,0,1.263.707.679.679,0,0,1,.444.561c.049.507.116,1.012.154,1.52.017.224.075.339.339.312.237-.024.479,0,.719,0h.938c.066-.618.136-1.188.185-1.759a.717.717,0,0,1,.468-.635,11.036,11.036,0,0,0,1.238-.694.783.783,0,0,1,.829-.086c.543.249,1.1.478,1.667.725l.978-1.633c-.488-.339-.956-.677-1.438-.994a.762.762,0,0,1-.366-.829,4.946,4.946,0,0,0,0-1.241.761.761,0,0,1,.367-.828c.481-.317.948-.654,1.437-.994l-.978-1.635c-.57.247-1.123.477-1.667.726a.783.783,0,0,1-.829-.087,13.207,13.207,0,0,0-1.264-.7.7.7,0,0,1-.44-.6c-.053-.588-.123-1.174-.187-1.773H80.008c-.015.119-.03.228-.041.337-.048.46-.1.92-.14,1.381a.757.757,0,0,1-.533.681,6.107,6.107,0,0,0-1.113.625.863.863,0,0,1-.98.1c-.512-.248-1.043-.459-1.581-.692l-.978,1.636c.489.339.956.678,1.439.992a.786.786,0,0,1,.366.834,5.973,5.973,0,0,0,0,1.213.81.81,0,0,1-.394.874c-.478.3-.934.642-1.409.973Z" transform="translate(-60.091 -60.744)"/><path class="a" d="M86.783,84.622a2.968,2.968,0,1,1-3.1,2.949A3.026,3.026,0,0,1,86.783,84.622Zm-.018,4.736a1.778,1.778,0,1,0-1.84-1.784A1.8,1.8,0,0,0,86.765,89.358Z" transform="translate(-65.869 -66.833)"/></svg>