<svg xmlns="http://www.w3.org/2000/svg" width="23.707" height="23.712" viewBox="0 0 23.707 23.712"><defs><style>.a{fill:#3d3d3d;}</style></defs><path class="a" d="M186.719,42.139c-.5.579-.977,1.15-1.484,1.69a1.067,1.067,0,0,1-.579.308c-1.406.2-2.816.381-4.224.566-.432.057-.654-.169-.6-.6.185-1.4.371-2.8.549-4.2a.925.925,0,0,1,.34-.64c.53-.44,1.043-.9,1.559-1.348-.015-.05-.014-.089-.034-.107a1.719,1.719,0,0,1-.394-1.56c.2-2.3.359-4.606.535-6.909.137-1.782.282-3.563.413-5.346a.55.55,0,0,1,.455-.548c2.706-.786,5.409-1.584,8.117-2.364a1.209,1.209,0,0,1,.636.011c2.317.667,4.629,1.35,6.943,2.026.132.039.269.057.486.1-.093-.13-.129-.188-.172-.241a.423.423,0,0,1,.009-.62c.341-.354.68-.712,1.048-1.036a1.289,1.289,0,0,1,1.746.029c.386.352.757.723,1.108,1.109a1.308,1.308,0,0,1-.027,1.819c-.255.277-.529.536-.8.8-.4.4-.509.408-.97.056-.208.227-.429.448-.622.692a.51.51,0,0,0-.052.323c.11,1.491.226,2.981.34,4.471.159,2.074.323,4.147.465,6.222a.981.981,0,0,1-.173.6,20.34,20.34,0,0,1-9.4,7.185.893.893,0,0,1-.567-.008A18.642,18.642,0,0,1,186.719,42.139ZM185.068,35.5l7.117-6.184c-.5-.493-.984-.968-1.462-1.448a.457.457,0,0,1,0-.755c.336-.344.678-.681,1.019-1.021s.526-.341.868,0c.4.4.792.8,1.188,1.2a4.722,4.722,0,0,1,.662-.568c.316-.183.5.123.724.305l1.428-1.317c-.122-.039-.179-.059-.238-.077-1.481-.435-2.962-.873-4.446-1.3a.975.975,0,0,0-.511,0c-1.785.512-3.565,1.042-5.35,1.553-.224.064-.278.172-.294.39-.151,2.063-.315,4.125-.474,6.187C185.219,33.448,185.148,34.425,185.068,35.5Zm-4.3,8.267c1.267-.167,2.486-.326,3.7-.5a.474.474,0,0,0,.243-.172q4.868-5.6,9.729-11.2a1.667,1.667,0,0,0,.1-.139l-.609-.609a2.762,2.762,0,0,1-.222.286q-4.411,4.416-8.827,8.828c-.266.266-.507.3-.71.1s-.177-.445.08-.71c.044-.045.089-.089.133-.133l8.717-8.716c.087-.087.171-.178.225-.235l-.538-.623-1.685,1.465q-4.83,4.2-9.657,8.394a.556.556,0,0,0-.191.3C181.09,41.309,180.935,42.51,180.767,43.769Zm8.028-4.023a1.828,1.828,0,0,0,.2.158c.807.457,1.618.909,2.424,1.37a.518.518,0,0,0,.526-.01,18,18,0,0,0,6.252-4.876.611.611,0,0,0,.113-.4c-.039-.678-.1-1.355-.154-2.032-.019-.245-.039-.49-.058-.742-.055.016-.08.016-.093.028-.187.183-.371.368-.559.55-.3.293-.505.294-.8,0-.474-.471-.944-.947-1.432-1.436ZM183,37.3c.336-.291.68-.58,1.011-.883a.44.44,0,0,0,.125-.267c.134-1.677.259-3.355.388-5.032.136-1.771.281-3.541.4-5.313a.639.639,0,0,1,.542-.649c1.966-.562,3.926-1.145,5.893-1.706a1.224,1.224,0,0,1,.637,0c1.706.484,3.407.988,5.111,1.481.1.03.258.067.318.016.379-.319.737-.661,1.134-1.025-2.287-.67-4.509-1.321-6.733-1.967a.635.635,0,0,0-.336.007q-3.816,1.112-7.627,2.244a.383.383,0,0,0-.208.274c-.076.78-.131,1.562-.191,2.343q-.374,4.86-.753,9.719A.787.787,0,0,0,183,37.3ZM199.874,26.79c-.433.47-.812.874-1.179,1.288a.378.378,0,0,0-.075.253c.052.792.114,1.584.174,2.376.139,1.845.284,3.688.411,5.534a.755.755,0,0,1-.144.486,18.891,18.891,0,0,1-7.038,5.465.722.722,0,0,1-.688,0q-1.436-.8-2.873-1.592c-.088-.049-.171-.107-.267-.168l-.9,1.039a18.533,18.533,0,0,0,4.01,2.2.915.915,0,0,0,.743,0,20.241,20.241,0,0,0,8.359-6.411,1.011,1.011,0,0,0,.22-.775c-.193-2.385-.372-4.772-.556-7.158C200.013,28.509,199.946,27.69,199.874,26.79Zm-4.026.817,1.051,1.116,3.869-4.209-.737-.755Zm-4.208-.13,5.406,5.422.531-.517-5.419-5.434Zm10.27-3.159c.188-.2.394-.405.589-.623a.445.445,0,0,0,0-.672q-.475-.5-.976-.976a.457.457,0,0,0-.7,0c-.215.194-.422.4-.61.576Zm-5.293,5.745c.17-.084.175-.17.039-.3q-.946-.931-1.876-1.877c-.15-.153-.234-.125-.305.039Zm1.256.117-.569.517.657.709Zm-.11-.542.066-.028-.05-.547-.257.3Z" transform="translate(-179.826 -21)"/></svg>