<svg xmlns="http://www.w3.org/2000/svg" width="100" height="57" viewBox="0 0 100 57"><defs><style>.a{fill:#589643;}.b,.c{fill:#fff;}.b{font-size:15px;font-family:RobotoSlab-Regular, Roboto Slab;}</style></defs><rect class="a" width="100" height="57" rx="5"/><text class="b" transform="translate(50 47)"><tspan x="-32.421" y="0">Há vagas</tspan></text><g transform="translate(37 5.642)"><path class="c" d="M31.907,19a21.241,21.241,0,0,1,2.264.429,8.008,8.008,0,0,1,5.813,5.323,5.93,5.93,0,0,1,.207,2.575,2.808,2.808,0,0,1-2.41,2.016c-1.845.239-3.494-.938-3.447-2.525a2.6,2.6,0,0,0-1.2-2.345c-1.547-1.082-4.135-.493-4.773,1.107a2.663,2.663,0,0,0-.2.934c-.02,1.512-.009,3.025-.009,4.537,0,.036.008.071.017.151h.411q5.887,0,11.774,0a2.97,2.97,0,0,1,2.817,1.391,2.462,2.462,0,0,1,.3,1.158c.022,3.562.017,7.125.011,10.687,0,1.518-1.259,2.55-3.09,2.551q-9.143,0-18.285,0c-1.862,0-3.1-1.019-3.1-2.565Q19,39.1,19,33.765a2.5,2.5,0,0,1,2.227-2.478,9.659,9.659,0,0,1,1-.114v-.29c0-1.367.009-2.733,0-4.1a6.892,6.892,0,0,1,2.475-5.4,9.525,9.525,0,0,1,5.632-2.341c.085-.008.169-.029.253-.044Zm-.67,26.583c3.025,0,6.049-.016,9.074.009.946.008,1.488-.47,1.482-1.243-.027-3.506-.012-7.013-.012-10.52,0-.843-.449-1.219-1.457-1.219H22.143c-1,0-1.463.387-1.463,1.222q0,5.26,0,10.52c0,.855.453,1.23,1.484,1.23ZM26.45,31.2v-.32c0-1.412-.005-2.824,0-4.236a4.17,4.17,0,0,1,.092-.924,4.581,4.581,0,0,1,4.375-3.207,4.924,4.924,0,0,1,4.8,2.644,5.509,5.509,0,0,1,.315,1.856,1.292,1.292,0,0,0,2.5-.025,5.315,5.315,0,0,0-.59-2.908c-1.653-3.075-5.684-4.444-9.463-3.222-2.524.817-4.477,3.08-4.537,5.324-.043,1.612-.022,3.224-.028,4.836a1.654,1.654,0,0,0,.022.181h2.5Z" transform="translate(-19 -19)"/><path class="c" d="M112.393,45.582a.654.654,0,0,1,.4-.47c.982-.476,1.963-.953,2.954-1.417a.957.957,0,0,1,1.147.254.638.638,0,0,1-.305.951c-.978.482-1.96.959-2.956,1.414A.828.828,0,0,1,112.393,45.582Z" transform="translate(-89.22 -37.5)"/><path class="c" d="M113.2,60.514a3.673,3.673,0,0,1,.48.152q1.4.66,2.784,1.335c.477.231.639.652.4.994a.951.951,0,0,1-1.229.223q-1.425-.674-2.839-1.364a.677.677,0,0,1-.42-.815A.915.915,0,0,1,113.2,60.514Z" transform="translate(-89.178 -50.214)"/><path class="c" d="M54.36,86.976c0-.628.009-1.257-.008-1.885a.531.531,0,0,0-.172-.354,2.754,2.754,0,0,1-.605-3.647,4.056,4.056,0,0,1,3.983-1.609,3.489,3.489,0,0,1,3.051,2.569,2.784,2.784,0,0,1-.97,2.673.653.653,0,0,0-.2.425c-.016,1.22-.008,2.441-.01,3.662,0,.568-.324.837-1,.838q-1.529,0-3.058,0-1,0-1.007-.841C54.357,88.2,54.36,87.586,54.36,86.976Zm1.7,1.25h1.693v-.313c0-1,.023-2-.01-3a1.225,1.225,0,0,1,.581-1.115A1.408,1.408,0,0,0,58.851,82a1.922,1.922,0,0,0-1.716-1.147A2.15,2.15,0,0,0,55,81.862a1.5,1.5,0,0,0,.53,1.983,1.081,1.081,0,0,1,.531.994c-.026,1.028-.009,2.056-.009,3.084Z" transform="translate(-44.663 -64.444)"/></g></svg>