<svg xmlns="http://www.w3.org/2000/svg" width="23.939" height="24.909" viewBox="0 0 23.939 24.909"><defs><style>.a{fill:#3d3d3d;}</style></defs><path class="a" d="M60.949,44a15.087,15.087,0,0,1,1.581.389,5.891,5.891,0,0,1,3.947,6.216,6.14,6.14,0,1,1-6.844-6.558A1.175,1.175,0,0,0,59.8,44Zm4.333,5.93a4.912,4.912,0,1,0-4.9,4.743A4.835,4.835,0,0,0,65.283,49.93Z" transform="translate(-48.312 -44)"/><path class="a" d="M43,81.273a13.057,13.057,0,0,1,.389-1.383A5.479,5.479,0,0,1,48.5,76.495c2.438-.01,4.877,0,7.315,0a.617.617,0,0,1,.694.493.566.566,0,0,1-.378.643,1.465,1.465,0,0,1-.426.043c-2.361,0-4.723,0-7.085,0a4.271,4.271,0,0,0-4.142,2.8,4.367,4.367,0,0,0-.237,1.3c-.031,1.333-.012,2.667-.012,4,0,.053.01.107.019.2h9.011c.519,0,.8.211.8.589s-.293.592-.805.592c-3.149,0-6.3,0-9.446.005A.773.773,0,0,1,43,86.72Z" transform="translate(-43 -62.262)"/><path class="a" d="M56.491,81.273A13.074,13.074,0,0,0,56.1,79.89a5.47,5.47,0,0,0-5.1-3.395c-2.434-.01-4.868,0-7.3,0a.616.616,0,0,0-.692.493.566.566,0,0,0,.378.643,1.46,1.46,0,0,0,.425.043c2.357,0,4.715,0,7.073,0a4.264,4.264,0,0,1,4.135,2.8,4.374,4.374,0,0,1,.237,1.3c.031,1.333.012,2.667.012,4,0,.053-.01.107-.019.2h-9c-.518,0-.8.211-.8.589s.292.592.8.592c3.143,0,6.287,0,9.43.005a.771.771,0,0,0,.806-.45Z" transform="translate(-32.552 -62.262)"/></svg>