<svg xmlns="http://www.w3.org/2000/svg" width="25.45" height="25.851" viewBox="0 0 25.45 25.851"><defs><style>.a{fill:#ff0303;}</style></defs><path class="a" d="M24.608,30.087c-.1.09-.159.146-.217.206q-.958.989-1.916,1.98c-.283.292-.471.292-.753,0-.358-.367-.716-.732-1.068-1.1a1.307,1.307,0,0,1,.008-1.893q1.044-1.091,2.1-2.171a2.707,2.707,0,0,1,.267-.208c-.232-.229-.422-.409-.6-.6a1.31,1.31,0,0,1,0-1.895q1.439-1.5,2.891-2.99a1.208,1.208,0,0,1,1.813,0c.185.187.358.386.571.616l.541-.622.586.626c-.051.055-.119.132-.19.205l-7.272,7.523c-.369.382-.369.537-.009.915.237.249.468.5.679.73l10.013-10.36c-.256-.273-.541-.6-.849-.9-.183-.177-.4-.139-.6.065-.151.149-.3.3-.442.457s-.283.315-.425.474l-.549-.608c.311-.339.631-.745,1.008-1.084a1.169,1.169,0,0,1,1.558.048c.429.405.833.839,1.238,1.271a.418.418,0,0,1,0,.623c-.08.094-.17.179-.256.268L27.1,27.495c-.065.067-.127.138-.231.252h12.72c.531,0,.658.16.585.706-.1.728-.186,1.459-.279,2.188-.007.052-.019.1-.032.173l-.812-.109c.086-.693.171-1.373.261-2.1H39q-6.314,0-12.629-.006a.889.889,0,0,0-.613.254,1.038,1.038,0,0,0-.343,1.076c.347,2.558.662,5.121.988,7.682q.387,3.042.778,6.082a.431.431,0,0,0,.5.424q1.719,0,3.437,0H36.8c.44,0,.545-.09.6-.548q.493-3.855.982-7.71.211-1.654.422-3.308a.843.843,0,0,1,.036-.12l.8.105c-.047.4-.09.775-.138,1.154q-.408,3.215-.818,6.43c-.157,1.236-.311,2.473-.473,3.708a1.262,1.262,0,0,1-1.268,1.15q-4.661,0-9.322,0a1.258,1.258,0,0,1-1.269-1.148q-.48-3.748-.95-7.5C25.144,34.275,24.879,32.212,24.608,30.087Zm-1.092-3.829,3.58-3.7c-.161-.152-.34-.319-.516-.49-.266-.259-.456-.262-.716,0-.388.4-.773.8-1.159,1.2-.558.577-1.118,1.152-1.673,1.732a.443.443,0,0,0-.007.7C23.194,25.891,23.362,26.084,23.516,26.258Z" transform="translate(-20.253 -19.134)"/><path class="a" d="M56.435,74.191c0,1.794,0,3.589,0,5.383a1.476,1.476,0,0,1-1,1.411,1.394,1.394,0,0,1-1.6-.466,1.752,1.752,0,0,1-.339-.925c-.023-3.619-.019-7.238-.011-10.857a1.473,1.473,0,0,1,2.946.011C56.441,70.562,56.435,72.377,56.435,74.191Zm-.984-.021q0-2.6,0-5.2a1.523,1.523,0,0,0-.008-.276.488.488,0,0,0-.969,0,1.5,1.5,0,0,0-.008.276q0,5.2,0,10.4a1.522,1.522,0,0,0,.008.276.488.488,0,0,0,.969,0,1.525,1.525,0,0,0,.008-.277Q55.451,76.771,55.451,74.171Z" transform="translate(-45.899 -58.169)"/><path class="a" d="M71.3,74.17c0,1.8.008,3.609,0,5.413a1.463,1.463,0,0,1-2.025,1.367,1.382,1.382,0,0,1-.919-1.335q-.016-5.444,0-10.888a1.473,1.473,0,0,1,2.946.029C71.309,70.561,71.3,72.365,71.3,74.17Zm-.984.032q0-2.615,0-5.231a1.523,1.523,0,0,0-.008-.276.488.488,0,0,0-.969,0,1.5,1.5,0,0,0-.008.276q0,5.2,0,10.4a1.372,1.372,0,0,0,.013.306.488.488,0,0,0,.958,0,1.339,1.339,0,0,0,.013-.306Q70.32,76.787,70.319,74.2Z" transform="translate(-57.375 -58.169)"/><path class="a" d="M86.171,74.17c0,1.8,0,3.609,0,5.413a1.47,1.47,0,0,1-.977,1.393,1.4,1.4,0,0,1-1.626-.465,1.7,1.7,0,0,1-.332-.9c-.023-3.629-.019-7.258-.011-10.888a1.473,1.473,0,0,1,2.946.03C86.177,70.562,86.171,72.366,86.171,74.17Zm-1.968,0q0,2.6,0,5.2a1.547,1.547,0,0,0,.008.276.488.488,0,0,0,.969,0,1.5,1.5,0,0,0,.008-.276q0-5.2,0-10.4a1.34,1.34,0,0,0-.013-.306.488.488,0,0,0-.958,0,1.352,1.352,0,0,0-.012.306Q84.2,71.572,84.2,74.171Z" transform="translate(-68.85 -58.169)"/><path class="a" d="M92.494,33.468c.006-.906.005-.908.9-1.093.631-.131,1.264-.255,1.9-.386a.49.49,0,0,1,.615.276,14.32,14.32,0,0,0,1.8,2.7c.376.518.24.87-.392.953-1.228.163-2.458.314-3.687.47-.274.035-.523-.039-.592-.318A10.9,10.9,0,0,1,92.494,33.468Zm3.988,1.568-1.367-2c-.462.091-.974.185-1.481.3a.258.258,0,0,0-.142.208c.1.608.217,1.213.331,1.829Z" transform="translate(-76.287 -28.535)"/><path class="a" d="M71.841,41.484a3.31,3.31,0,0,1-2.333-.591c-.262-.158-.549-.272-.821-.415a.492.492,0,0,1-.2-.809c.466-.635.943-1.263,1.416-1.893a.519.519,0,0,1,.594-.205c.6.156,1.207.311,1.813.454a.632.632,0,0,1,.48.422c.3.761.611,1.517.909,2.278.174.445-.038.751-.516.757C72.792,41.489,72.4,41.484,71.841,41.484Zm.686-1.025c-.184-.463-.366-.937-.564-1.4a.34.34,0,0,0-.209-.149c-.354-.1-.711-.183-1.069-.263-.068-.015-.181-.014-.214.028-.295.372-.576.755-.845,1.113A3.5,3.5,0,0,0,72.527,40.459Z" transform="translate(-57.558 -33.343)"/><path class="a" d="M117.105,27.074a4.854,4.854,0,0,0-3.832.9l-.571-.741a5.416,5.416,0,0,1,4.582-1.09Z" transform="translate(-91.834 -24.151)"/><path class="a" d="M104.714,21.459h-.931a2.374,2.374,0,0,1,2.407-2.428v.935A1.551,1.551,0,0,0,104.714,21.459Z" transform="translate(-84.654 -19.021)"/><path class="a" d="M96.293,19h.947v.952h-.947Z" transform="translate(-78.744 -19)"/><path class="a" d="M120.45,37.584h.948v.954h-.948Z" transform="translate(-97.53 -32.661)"/></svg>