<svg xmlns="http://www.w3.org/2000/svg" width="100" height="57" viewBox="0 0 100 57"><defs><style>.a,.e{fill:none;}.a{stroke:rgba(61,61,61,0.1);stroke-linecap:round;stroke-linejoin:round;}.b,.c{fill:#3d3d3d;}.b{font-size:15px;font-family:RobotoSlab-Regular, Roboto Slab;}.d{stroke:none;}</style></defs><g class="a"><rect class="d" width="100" height="57" rx="5"/><rect class="e" x="0.5" y="0.5" width="99" height="56" rx="4.5"/></g><text class="b" transform="translate(50 47)"><tspan x="-19.896" y="0">Cheia</tspan></text><g transform="translate(35.146 5.89)"><path class="c" d="M217.689,70.593a2.455,2.455,0,0,0-.3-1.156,2.963,2.963,0,0,0-2.816-1.392c-3.925,0-11.074,0-15,0h-.412q0-.026-.007-.045h-1.707v.045h-2.5c0-.015,0-.03,0-.045h-1.7v.015a9.767,9.767,0,0,0-1,.114A2.5,2.5,0,0,0,190,70.608q0,5.33,0,10.659c0,1.546,1.238,2.563,3.1,2.566H214.61c1.831,0,3.089-1.035,3.092-2.551C217.706,77.719,217.711,74.156,217.689,70.593Zm-3.154,11.84c-3.025-.025-9.275-.007-12.3-.007h-9.074c-1.032,0-1.484-.377-1.484-1.231q0-5.259,0-10.52c0-.834.464-1.221,1.464-1.221,6.059,0,15.346,0,21.405,0,1.007,0,1.459.375,1.459,1.218,0,3.506-.017,7.012.01,10.518C216.024,81.964,215.481,82.443,214.535,82.433Z" transform="translate(-189.998 -56.09)"/><path class="c" d="M237.194,42.526V42.8h-1.707c0-.05.01-.079.01-.107,0-1.514.01-3.025-.01-4.538a2.669,2.669,0,0,0-.2-.933,3.005,3.005,0,0,0-5.362,0,2.668,2.668,0,0,0-.2.933c-.02,1.514-.01,3.025-.01,4.538,0,.027,0,.057.01.107h-1.707v-.275c0-1.412,0-2.824,0-4.235a4.141,4.141,0,0,1,.092-.925,4.578,4.578,0,0,1,4.372-3.206h0a.955.955,0,0,1,.119,0,.916.916,0,0,1,.117,0h0a4.578,4.578,0,0,1,4.372,3.206,4.14,4.14,0,0,1,.092.925C237.2,39.7,237.194,41.114,237.194,42.526Z" transform="translate(-218.582 -30.644)"/><path class="c" d="M228.636,31.882v.275h-1.7a1.033,1.033,0,0,0,.015-.136c0-1.613.015-3.226-.027-4.836-.06-2.245-2.012-4.508-4.538-5.325a7.605,7.605,0,0,0-5.094,0c-2.526.816-4.479,3.079-4.538,5.325-.042,1.61-.022,3.223-.027,4.836a1.036,1.036,0,0,0,.015.136h-1.7v-.275c0-1.365.007-2.732,0-4.1a6.893,6.893,0,0,1,2.474-5.4,9.518,9.518,0,0,1,5.632-2.34c.084-.007.169-.03.253-.045h.891c.084.015.169.037.253.045a9.518,9.518,0,0,1,5.632,2.34,6.893,6.893,0,0,1,2.474,5.4C228.628,29.151,228.636,30.518,228.636,31.882Z" transform="translate(-205.811 -20)"/><path class="c" d="M232.36,86.976c0-.628.009-1.257-.008-1.885a.531.531,0,0,0-.172-.354,2.754,2.754,0,0,1-.605-3.647,4.056,4.056,0,0,1,3.983-1.609,3.489,3.489,0,0,1,3.051,2.569,2.784,2.784,0,0,1-.97,2.673.653.653,0,0,0-.2.425c-.016,1.22-.008,2.441-.01,3.662,0,.568-.324.837-1,.838q-1.529,0-3.058,0-1,0-1.007-.841C232.357,88.2,232.36,87.586,232.36,86.976Zm1.7,1.25h1.693v-.313c0-1,.023-2-.01-3a1.225,1.225,0,0,1,.581-1.115A1.408,1.408,0,0,0,236.851,82a1.922,1.922,0,0,0-1.716-1.147A2.15,2.15,0,0,0,233,81.862a1.5,1.5,0,0,0,.53,1.983,1.081,1.081,0,0,1,.531.994c-.026,1.028-.009,2.056-.009,3.084Z" transform="translate(-220.926 -64.692)"/></g></svg>