<svg xmlns="http://www.w3.org/2000/svg" xmlns:xlink="http://www.w3.org/1999/xlink" width="242.063" height="58" viewBox="0 0 242.063 58"><defs><style>.a{stroke:#444443;fill:url(#a);}.a,.b,.c{stroke-miterlimit:10;}.b,.c{fill:none;stroke:#000;}.c{stroke-width:3px;}.d{font-size:12px;font-family:Roboto-Black, Roboto;font-weight:800;}</style><linearGradient id="a" y1="0.5" x2="1" y2="0.5" gradientUnits="objectBoundingBox"><stop offset="0" stop-color="#4d4b56"/><stop offset="0.168" stop-color="#babdc4"/><stop offset="0.369" stop-color="#aeb1b8"/><stop offset="0.544" stop-color="#e6e9f0"/><stop offset="0.74" stop-color="#6c6f76"/><stop offset="0.894" stop-color="#e8ecef"/><stop offset="1" stop-color="#53565d"/></linearGradient></defs><g transform="translate(0.5 0.5)"><g transform="translate(-80.087 -53.21)"><rect class="a" width="241.063" height="57" transform="translate(80.087 53.21)"/><rect class="b" width="234.109" height="50.746" transform="translate(84.028 56.337)"/><g transform="translate(99.95 68.015)"><path class="c" d="M191.758,91.238v20.381H168.667c0-.081.007-.161.007-.241q0-4.371,0-8.742V102.4c.081,0,.135-.008.19-.008a25.017,25.017,0,0,0,3.383-.228,15.535,15.535,0,0,0,3.826-.992,38.4,38.4,0,0,0,7.529-4.084c2.193-1.535,4.351-3.122,6.525-4.685C190.669,92.01,191.215,91.625,191.758,91.238Z" transform="translate(-144.24 -87.86)"/><path class="c" d="M142.9,111.619H119.813V91.238c.042.026.086.048.126.076,2.065,1.491,4.143,2.967,6.194,4.478a45.3,45.3,0,0,0,7.936,4.76,18.929,18.929,0,0,0,3.653,1.312,22.469,22.469,0,0,0,4.966.522h.209v.267q0,4.362,0,8.724C142.9,111.458,142.9,111.538,142.9,111.619Z" transform="translate(-119.813 -87.86)"/><path class="c" d="M119.813,86.189V84.482H142.9c0,.086,0,.173,0,.259q0,6.327,0,12.654v.269c-.093,0-.16,0-.227,0-.895-.051-1.79-.084-2.682-.16a13.708,13.708,0,0,1-3.111-.646,28.656,28.656,0,0,1-4.437-1.994,45.724,45.724,0,0,1-5.519-3.538C124.562,89.6,122.184,87.9,119.813,86.189Z" transform="translate(-119.813 -84.482)"/><path class="c" d="M168.667,84.482h23.091v1.707c-2.211,1.6-4.437,3.173-6.631,4.792a46.041,46.041,0,0,1-8.48,5.108,15.431,15.431,0,0,1-4.288,1.31c-.894.117-1.795.179-2.694.25-.324.026-.65,0-.993,0V84.742C168.671,84.655,168.669,84.568,168.667,84.482Z" transform="translate(-144.24 -84.482)"/></g><text class="d" transform="translate(226.254 77.538)"><tspan x="-57.864" y="0">DEPARTARTAMENTO</tspan><tspan x="-28.233" y="14">DE JOGOS</tspan></text></g></g></svg>