<svg xmlns="http://www.w3.org/2000/svg" width="100" height="76" viewBox="0 0 100 76"><defs><style>.a,.e{fill:none;}.a{stroke:rgba(61,61,61,0.5);stroke-linecap:round;stroke-linejoin:round;}.b,.c{fill:#3d3d3d;}.b{font-size:15px;font-family:RobotoSlab-Regular, Roboto Slab;}.d{stroke:none;}</style></defs><g class="a"><rect class="d" width="100" height="76" rx="5"/><rect class="e" x="0.5" y="0.5" width="99" height="75" rx="4.5"/></g><text class="b" transform="translate(50 50)"><tspan x="-24.093" y="0">Versão</tspan><tspan x="-25.217" y="15">Celular</tspan></text><path class="c" d="M21.5,1.5H11.318A3.813,3.813,0,0,0,7.5,5.318V25.682A3.813,3.813,0,0,0,11.318,29.5H21.5a3.813,3.813,0,0,0,3.818-3.818V5.318A3.813,3.813,0,0,0,21.5,1.5ZM18.955,26.955H13.864V25.682h5.091Zm4.136-3.818H9.727V5.318H23.091Z" transform="translate(33.591 3.5)"/></svg>