<svg xmlns="http://www.w3.org/2000/svg" width="23.931" height="23.927" viewBox="0 0 23.931 23.927"><defs><style>.a{fill:#3d3d3d;}</style></defs><path class="a" d="M521.076,43.927H506.213a1.352,1.352,0,0,1-.973-1.5c.027-1.26.007-2.521.007-3.781v-.3h-.3c-.934,0-1.868,0-2.8,0a1.606,1.606,0,0,1-1.573-1.028c-.038-.1-.07-.2-.1-.305V20.983A1.268,1.268,0,0,1,501.928,20c.717,0,1.433,0,2.149,0a1.347,1.347,0,0,1,.92.332c.57.483,1.151.954,1.717,1.442a.905.905,0,0,0,.635.23q6.459-.008,12.919,0a1.194,1.194,0,0,1,1.33,1.326c0,.348,0,.7,0,1.065h1.449a1.207,1.207,0,0,1,1.346,1.337q0,2.593,0,5.185,0,2.9,0,5.793a1.588,1.588,0,0,1-1.221,1.592c-.118.029-.241.042-.371.065v.271c0,1.09,0,2.18,0,3.27a1.993,1.993,0,0,1-1.324,1.9C521.345,43.854,521.209,43.887,521.076,43.927Zm-12.621-.8h12.2A1.219,1.219,0,0,0,522,41.789q0-6.238,0-12.476a1.207,1.207,0,0,0-1.332-1.331H508.455Zm-3.208-5.6V37.22q0-4.345,0-8.691a1.21,1.21,0,0,1,1.34-1.346q7.034,0,14.067,0a2.686,2.686,0,0,1,.557.043,1.989,1.989,0,0,1,1.588,2.029q0,3.995,0,7.99v.281a1.065,1.065,0,0,0,.16,0,.808.808,0,0,0,.636-.88q0-5.443,0-10.887c0-.46-.114-.571-.585-.571H504.249c-.493,0-.6.107-.6.607q0,5.233,0,10.466a2.321,2.321,0,0,1-.2,1.271ZM520.8,24.391c0-.426.006-.815,0-1.2a.372.372,0,0,0-.383-.386c-.085-.006-.171,0-.257,0q-6.415,0-12.829,0a1.57,1.57,0,0,1-1.091-.386q-.855-.743-1.741-1.45a.785.785,0,0,0-.441-.159c-.732-.016-1.464-.007-2.2-.007-.492,0-.6.108-.6.606q0,7.581,0,15.162c0,.078,0,.156,0,.234a.8.8,0,1,0,1.59-.145c0-3.629.011-7.258-.008-10.887a1.306,1.306,0,0,1,1.389-1.387c5.413.019,10.827.01,16.24.01ZM507.632,43.13V27.981h-.99c-.5,0-.595.1-.595.606q0,6.959,0,13.918c0,.078,0,.156,0,.233a.391.391,0,0,0,.412.389C506.844,43.136,507.225,43.13,507.632,43.13Z" transform="translate(-500.464 -20)"/><path class="a" d="M546.214,75.3V75q0-2.324,0-4.649a1.226,1.226,0,0,1,1.131-1.378c1.255-.266,2.509-.539,3.764-.8a1.185,1.185,0,0,1,1.482,1.184q.007,3.188,0,6.377a1.99,1.99,0,1,1-2.02-2.017,2.028,2.028,0,0,1,1.206.388V71.82c-.6.128-1.2.254-1.8.383-.92.2-1.837.4-2.759.59-.174.035-.2.107-.2.262q.007,1.869,0,3.738a2,2,0,1,1-3.421-1.284,1.972,1.972,0,0,1,2.322-.378C546,75.176,546.088,75.227,546.214,75.3Zm5.58-4.3c0-.578.01-1.137,0-1.695-.007-.274-.242-.418-.538-.355q-1.937.413-3.872.83a.4.4,0,0,0-.364.439c-.006.327,0,.653,0,.98v.827Zm0,4.716A1.193,1.193,0,1,0,550.6,76.9,1.2,1.2,0,0,0,551.795,75.714Zm-6.783,2.379a1.193,1.193,0,1,0,.007-2.386,1.193,1.193,0,1,0-.007,2.386Z" transform="translate(-533.848 -57.76)"/></svg>