<svg xmlns="http://www.w3.org/2000/svg" width="28.486" height="28.465" viewBox="0 0 28.486 28.465"><defs><style>.a{fill:#3d3d3d;}</style></defs><g transform="translate(-39.714 -40.187)"><path class="a" d="M39.714,49.384c.145-.64.261-1.286.439-1.916a13.74,13.74,0,0,1,3.693-6.176c.3-.3.61-.322.857-.082s.232.572-.078.876a12.721,12.721,0,0,0-3.477,5.945c-.129.491-.222.994-.3,1.5-.048.3-.143.545-.461.619s-.517-.123-.671-.373Z" transform="translate(0 -0.515)"/><path class="a" d="M61.645,65.338c0,.41.014.78,0,1.149a2.068,2.068,0,0,1-1.277,1.96A2.2,2.2,0,0,1,57.2,66.553c-.029-.394,0-.792,0-1.215H49.582c-.549,0-.733-.184-.733-.734q0-1.53,0-3.059c0-.444.193-.638.641-.66a2.782,2.782,0,0,0,2.694-2.808c.008-2.392,0-4.784,0-7.176A7.2,7.2,0,0,1,57,43.95a.268.268,0,0,0,.2-.3,11.366,11.366,0,0,1,.051-1.636A2.186,2.186,0,0,1,59.615,40.2a2.231,2.231,0,0,1,2.028,2.171c.01.426.008.853,0,1.279a.265.265,0,0,0,.2.3,7.26,7.26,0,0,1,4.81,6.922c.008,2.364,0,4.729,0,7.093a2.78,2.78,0,0,0,2.778,2.921.576.576,0,0,1,.582.677c-.026.908-.019,1.817-.021,2.725,0,.989-.062,1.05-1.058,1.05h-7.29Zm5.045-4.451c-.051-.067-.07-.1-.092-.12a3.994,3.994,0,0,1-1.06-2.842c.012-2.4.016-4.8,0-7.205A6.118,6.118,0,0,0,53.3,50.692c-.012,2.457,0,4.915,0,7.372a3.88,3.88,0,0,1-.878,2.492c-.079.1-.164.192-.282.33h.565q2.073,0,4.145,0c.39,0,.639.207.654.533.016.344-.248.579-.663.579H49.983v2.211H68.862V62h-6c-.306,0-.613.009-.918,0a.537.537,0,0,1-.537-.557.544.544,0,0,1,.545-.55c.074,0,.148,0,.222,0h4.512ZM60.534,43.56c0-.316,0-.647,0-.978a2.288,2.288,0,0,0-.012-.332A1.121,1.121,0,0,0,59.5,41.3a1.041,1.041,0,0,0-1.123.758,11.217,11.217,0,0,0-.1,1.5ZM58.309,65.352c0,.381-.007.75,0,1.118a1.114,1.114,0,0,0,1,1.089A1.066,1.066,0,0,0,60.49,66.7a9.3,9.3,0,0,0,.013-1.344Z" transform="translate(-5.463)"/><path class="a" d="M102.906,49.567a.568.568,0,0,1-.5.592.574.574,0,0,1-.615-.514c-.131-.653-.232-1.315-.416-1.953a12.583,12.583,0,0,0-3.159-5.383c-.065-.066-.131-.131-.2-.2-.325-.326-.362-.642-.1-.9s.572-.22.9.117c.359.374.722.747,1.05,1.148a13.877,13.877,0,0,1,3.034,6.994C102.9,49.511,102.9,49.548,102.906,49.567Z" transform="translate(-34.706 -0.516)"/><path class="a" d="M52.312,46.786c.165.135.378.229.443.385a.836.836,0,0,1-.045.565c-.057.143-.219.244-.336.364a9.488,9.488,0,0,0-2.547,4.908c-.005.027-.005.055-.011.082a.572.572,0,0,1-.658.494.565.565,0,0,1-.439-.694,10.543,10.543,0,0,1,3.145-5.843A2.475,2.475,0,0,1,52.312,46.786Z" transform="translate(-5.378 -3.947)"/><path class="a" d="M91.829,46.968a1.311,1.311,0,0,1,.321.189,10.552,10.552,0,0,1,3.149,5.87.564.564,0,0,1-.445.666A.557.557,0,0,1,94.2,53.2,8.8,8.8,0,0,0,92.9,49.831c-.433-.641-.973-1.209-1.449-1.821a1.115,1.115,0,0,1-.248-.526C91.168,47.2,91.438,46.968,91.829,46.968Z" transform="translate(-30.788 -4.055)"/><path class="a" d="M73.873,92.25a.546.546,0,0,1,.532-.563.555.555,0,1,1,.017,1.109A.547.547,0,0,1,73.873,92.25Z" transform="translate(-20.428 -30.799)"/></g></svg>