<svg xmlns="http://www.w3.org/2000/svg" width="19.651" height="22.927" viewBox="0 0 19.651 22.927"><defs><style>.a{fill:#3d3d3d;}</style></defs><path class="a" d="M21.352,7.065a2.977,2.977,0,0,1,.614.972,2.953,2.953,0,0,1,.256,1.126V23.9a1.223,1.223,0,0,1-1.228,1.228H3.8A1.223,1.223,0,0,1,2.571,23.9V3.432A1.223,1.223,0,0,1,3.8,2.2H15.262a2.953,2.953,0,0,1,1.126.256,2.977,2.977,0,0,1,.972.614Zm-5.68-3.122V8.754h4.81a1.4,1.4,0,0,0-.281-.525l-4-4a1.4,1.4,0,0,0-.525-.281Zm4.913,19.549v-13.1H15.262a1.223,1.223,0,0,1-1.228-1.228V3.841H4.208V23.493H20.585Zm-6.576-7.587a9.734,9.734,0,0,0,1.075.716,12.7,12.7,0,0,1,1.5-.09q1.881,0,2.265.627a.618.618,0,0,1,.026.665.037.037,0,0,1-.013.026l-.026.026v.013q-.077.486-.908.486a5.278,5.278,0,0,1-1.471-.256,9.329,9.329,0,0,1-1.663-.678A23.038,23.038,0,0,0,9.774,18.5q-1.957,3.352-3.1,3.352a.744.744,0,0,1-.358-.09l-.307-.154Q6,21.6,5.936,21.548a.529.529,0,0,1-.077-.461,2.778,2.778,0,0,1,.716-1.171,6.183,6.183,0,0,1,1.689-1.235.187.187,0,0,1,.294.077.074.074,0,0,1,.026.051q.665-1.087,1.369-2.52a19.527,19.527,0,0,0,1.331-3.352,10.342,10.342,0,0,1-.39-2.041,4.974,4.974,0,0,1,.083-1.631q.141-.512.537-.512H11.8a.539.539,0,0,1,.448.192,1.022,1.022,0,0,1,.115.87.277.277,0,0,1-.051.1.333.333,0,0,1,.013.1V10.4a16.754,16.754,0,0,1-.179,2.456,6.473,6.473,0,0,0,1.868,3.045ZM6.639,21.164a5.649,5.649,0,0,0,1.753-2.021,7.293,7.293,0,0,0-1.119,1.075A4.253,4.253,0,0,0,6.639,21.164Zm5.092-11.77a3.8,3.8,0,0,0-.026,1.689q.013-.09.09-.563,0-.038.09-.55a.288.288,0,0,1,.051-.1.037.037,0,0,1-.013-.026.026.026,0,0,0-.006-.019A.026.026,0,0,1,11.91,9.8a.736.736,0,0,0-.166-.461.037.037,0,0,1-.013.026v.026ZM10.145,17.85a18.766,18.766,0,0,1,3.633-1.036,1.93,1.93,0,0,1-.166-.122,2.291,2.291,0,0,1-.2-.173,6.777,6.777,0,0,1-1.625-2.252,17.1,17.1,0,0,1-1.062,2.52q-.384.716-.576,1.062Zm8.265-.2a3.062,3.062,0,0,0-1.791-.307A4.839,4.839,0,0,0,18.2,17.7a1.241,1.241,0,0,0,.23-.013q0-.013-.026-.038Z" transform="translate(-2.571 -2.203)"/></svg>