<svg xmlns="http://www.w3.org/2000/svg" width="23.579" height="23.88" viewBox="0 0 23.579 23.88"><defs><style>.a{fill:#3d3d3d;}</style></defs><path class="a" d="M81.883,74.7a1.865,1.865,0,0,0-1.645-1.355,13.393,13.393,0,0,0-1.778-.035c-.142,0-.095.088-.1.15-.017.176.086.408-.043.513s-.416.024-.634.037a.076.076,0,0,1-.028,0c-.216-.013-.5.079-.629-.037-.106-.1-.045-.339-.037-.515.006-.132-.058-.161-.192-.148-.073.006-.149-.007-.22,0-.244.033-.315-.038-.315-.256.011-3.581.006-7.16.006-10.742,0-.324,0-.324-.382-.337a.426.426,0,0,0-.045-.017.592.592,0,0,0-.086-.026.369.369,0,0,0-.332.061.7.7,0,0,0-.047.39c-.009,3.486.013,6.974-.013,10.46,0,.392,0,.394-.451.394-1.015,0-2.028,0-3.044,0-.373,0-.442.049-.446.339a.566.566,0,0,0,0,.06v0c-.013.4.039.441.5.445.091,0,.183,0,.274,0q1.714,0,3.425,0a.986.986,0,0,1,.379.035c.013.009.024.018.034.027a.3.3,0,0,1,.075-.13c.1.055.047.139.047.209,0,.551-.009,1.1.006,1.653,0,.183-.054.233-.269.231-2.927-.005-3.7,0-6.624,0-.433,0-.433,0-.453.372,0,.108.006.218.009.328h8.163c0-.223-.1-.516.032-.654s.5-.04.757-.044c.578-.007.578,0,.578.489,0,.07,0,.139,0,.209h1.811A2.033,2.033,0,0,1,80.6,76.7a1.946,1.946,0,0,0,1.229-1.084c.028-.069.011-.157.106-.2v-.606A.685.685,0,0,1,81.883,74.7Zm-3.52.6c-.013.094-.054.114-.151.114-.364,0-.729,0-1.091,0-.112,0-.147-.038-.136-.125v-.022c-.034-.555-.034-.555.692-.555h.082C78.443,74.712,78.438,74.712,78.363,75.3Zm1.6.809c-.776.055-.778.055-.776-.6,0-.154.006-.31.009-.463l0,0h0c0-.3-.006-.6-.009-.906,0-.06-.019-.134.1-.128a2.96,2.96,0,0,1,1.106.1,1.006,1.006,0,0,1,.61.564C81.323,75.327,80.8,76.05,79.96,76.109Z" transform="translate(-58.352 -52.932)"/><path class="a" d="M32.039,96.828h-4.8c-.405,0-.41-.009-.416-.353-.019-1.358-.006-2.717-.013-4.075a.542.542,0,0,0-.052-.343.362.362,0,0,0-.373-.026.186.186,0,0,0-.039.018c-.043,0-.08,0-.114.007-.315.02-.315.053-.315.388,0,1.32,0,2.64,0,3.96,0,.159.086.364-.043.465-.093.077-.328.033-.5.027-.127,0-.17.027-.172.143,0,.181.106.438-.047.527s-.44.031-.666.031c-.209,0-.479.055-.608-.033s-.05-.333-.043-.509c0-.143-.063-.161-.207-.159-.446.007-.895,0-1.343,0a1.974,1.974,0,0,0-2.011,1.514,1.77,1.77,0,0,0,1.395,1.895c.08.022.183.009.237.09h1.921v-.024c.006-.216-.088-.513.043-.628.164-.145.515-.042.785-.046.55-.007.55,0,.55.465,0,.077,0,.156-.006.233H29.91c0-.11,0-.22.006-.328-.019-.372-.019-.372-.453-.372-1.839,0-1.306,0-3.145,0-.216,0-.3-.027-.293-.234.019-.516,0-.516.617-.516h1.317c.405,0,.405,0,.431-.326-.03-.373-.03-.373-.483-.373-.548,0-1.1-.006-1.643,0-.168,0-.239-.024-.237-.187,0-.472-.006-.472.554-.472h5.993a.428.428,0,0,1,.088-.266c0-.062,0-.117,0-.165C32.665,96.843,32.565,96.828,32.039,96.828Zm-9.2,2.874a4.828,4.828,0,0,1-.845-.044,1,1,0,0,1-.8-1.4,1.115,1.115,0,0,1,1.03-.654c.785-.057.785-.048.785.612,0,.139-.006.278-.009.419,0,.3,0,.6.011.906C23.016,99.66,22.986,99.713,22.835,99.7Zm2.108-.52h-.862v-1.1h.862Z" transform="translate(-20.256 -76.52)"/><path class="a" d="M81.605,21.605a1.885,1.885,0,0,0-1.686-1.348,15.108,15.108,0,0,0-1.727-.029c-.112,0-.1.057-.108.121-.017.19.108.458-.052.551s-.457.025-.694.027h-.056c-.569,0-.578,0-.565-.472,0-.174-.039-.233-.263-.231-1.582.009-3.164,0-4.747,0-.455,0-.455,0-.485.368l-.013.027a.043.043,0,0,0,.015,0c.026.308.034.308.418.308,1.332,0,2.664.005,4,0,.207,0,.257.046.254.218-.011.533,0,.533-.619.533H73.962c-.4,0-.4,0-.429.324.03.375.03.375.483.375.548,0,1.1.005,1.643,0,.168,0,.237.022.237.185,0,.472.006.472-.556.472H68.95c-.354,0-.379,0-.4.26,0,.018,0,.04,0,.064h-.073v.005c-.011.388.041.436.485.441.082,0,.164,0,.246,0,2.552,0,2.949,0,5.5,0,.375,0,.388.011.388.326,0,.683,0,1.366,0,2.05,0,.714-.009,1.428.006,2.144,0,.275.116.355.386.282a.366.366,0,0,0,.054-.016.227.227,0,0,0,.032-.009c.427-.024.427-.024.427-.4V24.2c0-.454,0-.458.524-.467.129,0,.2-.013.2-.146,0-.183-.108-.43.052-.529.144-.088.423-.029.64-.024s.491-.079.634.033.043.339.039.514c0,.125.045.156.185.152.468-.007.933,0,1.4-.005a2.17,2.17,0,0,0,1.453-.568,2.02,2.02,0,0,0,.539-.925v-.559C81.616,21.665,81.614,21.636,81.605,21.605Zm-3.514.608c-.013.094-.05.117-.149.115-.364,0-.729,0-1.091,0-.108,0-.151-.035-.138-.123v-.022c-.037-.557-.037-.557.716-.557h.054C78.167,21.629,78.163,21.629,78.092,22.213Zm1.6.813c-.782.046-.785.046-.782-.615,0-.141.006-.28.009-.419,0-.31-.006-.621-.009-.932,0-.057-.026-.134.093-.13a2.683,2.683,0,0,1,1.181.13.96.96,0,0,1,.548.551A1.047,1.047,0,0,1,79.7,23.026Z" transform="translate(-58.08 -20.217)"/><path class="a" d="M32.607,20.591c-.017-.328-.017-.328-.416-.328H28.024c-.869,0-1.735,0-2.6,0-.116,0-.209-.011-.207.137,0,.181.1.44-.041.529s-.435.029-.662.033a.152.152,0,0,1-.028,0c-.207-.013-.481.077-.6-.04-.1-.1-.041-.324-.032-.493.006-.13-.034-.172-.194-.168-.457.009-.914,0-1.371.005a1.964,1.964,0,0,0-2,1.578,1.8,1.8,0,0,0,1.606,1.873,13.12,13.12,0,0,0,1.86.046c.142,0,.091-.092.1-.152.017-.176-.088-.41.043-.513s.418-.033.636-.031.513-.084.655.037c.108.09.034.337.041.513v.024c-.013.086.024.13.134.123.093-.005.185.009.274,0,.248-.033.313.046.313.258q-.013,5.369-.006,10.74c0,.3,0,.322.315.337.019,0,.043,0,.067,0l.034,0c.41-.015.41-.026.41-.4q0-5.344-.006-10.689c0-.211.067-.251.3-.251,1.591.009.808.005,2.4.005.451,0,.451,0,.476-.375,0-.022,0-.044-.006-.064a.587.587,0,0,1,0-.123c.015-.119-.052-.145-.175-.139-.155.007-.313,0-.468,0-1.772,0-1.175-.005-2.947.006-.252,0-.3-.06-.293-.258.015-.544,0-1.088,0-1.631,0-.068-.054-.154.047-.207.1,0,.2-.011.3-.011h5.736c.446,0,.459,0,.476-.341a.05.05,0,0,0,.019.011C32.62,20.62,32.614,20.605,32.607,20.591Zm-9.6,1.435c0,.3.009.606.011.908,0,.059.019.134-.1.13a3.772,3.772,0,0,1-1-.06.99.99,0,0,1-.718-1.358,1.074,1.074,0,0,1,.933-.661,1.675,1.675,0,0,1,.832.009c.168.075.041.386.054.591C23.028,21.731,23.015,21.88,23.011,22.026Zm2.212.225c-.011.073-.026.114-.123.112-.373,0-.746,0-1.119,0-.112,0-.147-.04-.136-.124a.044.044,0,0,0,0-.024c-.032-.551-.032-.551.7-.551h.082C25.3,21.664,25.3,21.664,25.222,22.251Z" transform="translate(-20.268 -20.251)"/><path class="a" d="M65.145,129.387v-.026c-.026.007-.05.016-.075.026Z" transform="translate(-55.41 -105.834)"/></svg>